<svg width="200" height="200" xmlns="http://www.w3.org/2000/svg">
  <rect width="200" height="200" fill="#ffffff" stroke="#2A5A5B" stroke-width="2"/>
  
  <!-- QR code pattern simulation -->
  <rect x="20" y="20" width="40" height="40" fill="#2A5A5B"/>
  <rect x="140" y="20" width="40" height="40" fill="#2A5A5B"/>
  <rect x="20" y="140" width="40" height="40" fill="#2A5A5B"/>
  
  <!-- Corner markers -->
  <rect x="25" y="25" width="30" height="30" fill="#ffffff"/>
  <rect x="145" y="25" width="30" height="30" fill="#ffffff"/>
  <rect x="25" y="145" width="30" height="30" fill="#ffffff"/>
  
  <rect x="35" y="35" width="10" height="10" fill="#2A5A5B"/>
  <rect x="155" y="35" width="10" height="10" fill="#2A5A5B"/>
  <rect x="35" y="155" width="10" height="10" fill="#2A5A5B"/>
  
  <!-- Random pattern blocks -->
  <rect x="80" y="30" width="10" height="10" fill="#2A5A5B"/>
  <rect x="100" y="30" width="10" height="10" fill="#2A5A5B"/>
  <rect x="70" y="50" width="10" height="10" fill="#2A5A5B"/>
  <rect x="90" y="50" width="10" height="10" fill="#2A5A5B"/>
  <rect x="110" y="50" width="10" height="10" fill="#2A5A5B"/>
  <rect x="130" y="50" width="10" height="10" fill="#2A5A5B"/>
  
  <rect x="30" y="80" width="10" height="10" fill="#2A5A5B"/>
  <rect x="50" y="80" width="10" height="10" fill="#2A5A5B"/>
  <rect x="70" y="80" width="10" height="10" fill="#2A5A5B"/>
  <rect x="90" y="80" width="10" height="10" fill="#2A5A5B"/>
  <rect x="110" y="80" width="10" height="10" fill="#2A5A5B"/>
  <rect x="130" y="80" width="10" height="10" fill="#2A5A5B"/>
  <rect x="150" y="80" width="10" height="10" fill="#2A5A5B"/>
  <rect x="170" y="80" width="10" height="10" fill="#2A5A5B"/>
  
  <rect x="40" y="100" width="10" height="10" fill="#2A5A5B"/>
  <rect x="80" y="100" width="10" height="10" fill="#2A5A5B"/>
  <rect x="120" y="100" width="10" height="10" fill="#2A5A5B"/>
  <rect x="160" y="100" width="10" height="10" fill="#2A5A5B"/>
  
  <rect x="60" y="120" width="10" height="10" fill="#2A5A5B"/>
  <rect x="100" y="120" width="10" height="10" fill="#2A5A5B"/>
  <rect x="140" y="120" width="10" height="10" fill="#2A5A5B"/>
  
  <rect x="80" y="160" width="10" height="10" fill="#2A5A5B"/>
  <rect x="100" y="160" width="10" height="10" fill="#2A5A5B"/>
  <rect x="120" y="160" width="10" height="10" fill="#2A5A5B"/>
  <rect x="140" y="160" width="10" height="10" fill="#2A5A5B"/>
  <rect x="160" y="160" width="10" height="10" fill="#2A5A5B"/>
  
  <!-- Center text -->
  <text x="100" y="105" text-anchor="middle" font-family="Arial, sans-serif" font-size="12" fill="#2A5A5B">QR CODE</text>
  <text x="100" y="120" text-anchor="middle" font-family="Arial, sans-serif" font-size="8" fill="#4A6A6B">PLACEHOLDER</text>
</svg>
